<svg width="90" height="90" viewBox="0 0 90 90" fill="none" xmlns="http://www.w3.org/2000/svg">
<path d="M64.4925 87H25.5075C13.0745 87 3 76.921 3 64.4925V25.5076C3 13.0791 13.0791 3 25.5075 3H64.4925C76.9255 3 87 13.0791 87 25.5076V64.4925C87 76.9255 76.9209 87 64.4925 87ZM45.5521 23.8398C33.6144 23.8398 23.9352 33.519 23.9352 45.4567C23.9352 57.3944 33.6144 67.0736 45.5521 67.0736C57.4898 67.0736 67.169 57.3944 67.169 45.4567C67.169 33.519 57.4898 23.8398 45.5521 23.8398ZM70.7589 12.7474C67.2872 12.7474 64.4697 15.5648 64.4697 19.0366C64.4697 22.5084 67.2872 25.3258 70.7589 25.3258C74.2307 25.3258 77.0481 22.5084 77.0481 19.0366C77.0481 15.5648 74.2307 12.7474 70.7589 12.7474Z" stroke="#BFBFBF" stroke-width="4.5" stroke-miterlimit="10"/>
</svg>
