<svg width="91" height="91" viewBox="0 0 91 91" fill="none" xmlns="http://www.w3.org/2000/svg">
<path d="M88 45.4041C88 68.8265 69.0131 87.8082 45.5949 87.8082C38.081 87.8082 31.0248 85.8527 24.9029 82.4234L5.47766 87.9238C3.98453 88.3476 2.61662 86.9316 3.09828 85.453L9.08528 66.977C5.3428 60.653 3.18979 53.279 3.18979 45.3993C3.18497 21.9865 22.1719 3 45.5949 3C69.0179 3 88 21.9865 88 45.4041ZM61.557 65.6043C67.0431 63.408 68.9023 60.5711 68.9553 55.3453C68.9649 54.435 68.7096 53.6017 67.8619 53.1875C64.6155 51.5981 61.3692 50.0038 58.0698 48.5396C56.62 47.8942 55.6375 48.3181 54.626 49.5703C53.6097 50.8226 52.5645 52.0508 51.5915 53.332C51.1629 53.8907 50.7872 53.9774 50.1369 53.698C44.1644 51.1068 39.7235 46.7431 36.034 41.5172C35.8991 41.3246 35.981 40.8237 36.1448 40.6069C36.8384 39.687 37.6716 38.8634 38.3267 37.9193C39.0684 36.8453 39.8391 35.6652 39.2804 34.2829C37.9654 31.0462 36.6168 27.8288 35.1815 24.6452C34.6035 23.3592 33.4379 22.8342 32.0122 23.0124C31.3186 23.0991 30.625 23.1761 29.9362 23.2966C27.6483 23.6915 25.635 24.5344 24.296 26.5958C22.2731 29.7121 21.6951 33.1221 22.2442 36.72C22.7932 40.3516 24.5898 43.4438 26.661 46.4204C32.5516 54.8925 39.7331 61.6934 49.8865 64.7566C52.4248 65.5225 54.9583 66.2642 57.6652 66.4231C58.9705 66.163 60.3481 66.1004 61.5618 65.614L61.557 65.6043Z" stroke="#BFBFBF" stroke-width="4.5" stroke-miterlimit="10"/>
</svg>
